<svg width="1280" height="114" viewBox="0 0 1280 114" fill="none" xmlns="http://www.w3.org/2000/svg">
<path d="M-140 15.1772L-100.924 183.886M-140 15.1772L-5.72125 60.5443M-140 15.1772L66.0362 159.785M-100.924 183.886L66.0362 159.785M-100.924 183.886L-5.72125 60.5443M66.0362 159.785L336.015 225M66.0362 159.785L-5.72125 60.5443M66.0362 159.785L105.822 44.9494M66.0362 159.785L295.518 81.1013M336.015 225L452.532 114.418M336.015 225L295.518 81.1013M336.015 225L-5.72125 60.5443M336.015 225L161.95 1M452.532 114.418L572.601 137.81M452.532 114.418L295.518 81.1013M452.532 114.418L161.95 1M452.532 114.418L483.792 72.9494L515.053 31.481M515.053 31.481L572.601 137.81M515.053 31.481L793.557 60.5443M515.053 31.481L405.285 56.2911L295.518 81.1013M572.601 137.81L793.557 60.5443M572.601 137.81L886.629 203.025M572.601 137.81L907.232 114.418M793.557 60.5443L907.232 114.418M793.557 60.5443L886.629 203.025M907.232 114.418L886.629 203.025M907.232 114.418L1034.41 19.4304M907.232 114.418L1192.13 151.278M886.629 203.025L1034.41 19.4304M886.629 203.025L1192.13 151.278M1034.41 19.4304L1192.13 151.278M1034.41 19.4304L1344.88 44.9494H1509L1396.04 142.772M1034.41 19.4304L1396.04 142.772M1192.13 151.278L1337.07 44.9494L1396.04 142.772M1192.13 151.278L1396.04 142.772M295.518 81.1013L161.95 1M295.518 81.1013L105.822 44.9494M161.95 1L105.822 44.9494M105.822 44.9494L-5.72125 60.5443" stroke="white"/>
</svg>
